<svg width="126" height="143" viewBox="0 0 126 143" fill="none" xmlns="http://www.w3.org/2000/svg">
<circle cx="3.24384" cy="3.51508" r="3.24384" fill="#D7DDDA"/>
<circle cx="3.24384" cy="20.5452" r="3.24384" fill="#D7DDDA"/>
<circle cx="3.24384" cy="37.5754" r="3.24384" fill="#D7DDDA"/>
<circle cx="3.24384" cy="54.6055" r="3.24384" fill="#D7DDDA"/>
<circle cx="3.24384" cy="71.6356" r="3.24384" fill="#D7DDDA"/>
<circle cx="3.24384" cy="88.6657" r="3.24384" fill="#D7DDDA"/>
<circle cx="3.24384" cy="105.696" r="3.24384" fill="#D7DDDA"/>
<circle cx="3.24384" cy="122.726" r="3.24384" fill="#D7DDDA"/>
<circle cx="3.24384" cy="139.756" r="3.24384" fill="#D7DDDA"/>
<circle cx="20.2741" cy="3.51508" r="3.24384" fill="#D7DDDA"/>
<circle cx="20.2741" cy="20.5452" r="3.24384" fill="#D7DDDA"/>
<circle cx="20.2741" cy="37.5754" r="3.24384" fill="#D7DDDA"/>
<circle cx="20.2741" cy="54.6055" r="3.24384" fill="#D7DDDA"/>
<circle cx="20.2741" cy="71.6356" r="3.24384" fill="#D7DDDA"/>
<circle cx="20.2741" cy="88.6657" r="3.24384" fill="#D7DDDA"/>
<circle cx="20.2741" cy="105.696" r="3.24384" fill="#D7DDDA"/>
<circle cx="20.2741" cy="122.726" r="3.24384" fill="#D7DDDA"/>
<circle cx="20.2741" cy="139.756" r="3.24384" fill="#D7DDDA"/>
<circle cx="37.3039" cy="3.51508" r="3.24384" fill="#D7DDDA"/>
<circle cx="37.3039" cy="20.5452" r="3.24384" fill="#D7DDDA"/>
<circle cx="37.3039" cy="37.5754" r="3.24384" fill="#D7DDDA"/>
<circle cx="37.3039" cy="54.6055" r="3.24384" fill="#D7DDDA"/>
<circle cx="37.3039" cy="71.6356" r="3.24384" fill="#D7DDDA"/>
<circle cx="37.3039" cy="88.6657" r="3.24384" fill="#D7DDDA"/>
<circle cx="37.3039" cy="105.696" r="3.24384" fill="#D7DDDA"/>
<circle cx="37.3039" cy="122.726" r="3.24384" fill="#D7DDDA"/>
<circle cx="37.3039" cy="139.756" r="3.24384" fill="#D7DDDA"/>
<circle cx="88.3945" cy="3.51508" r="3.24384" fill="#D7DDDA"/>
<circle cx="88.3945" cy="20.5452" r="3.24384" fill="#D7DDDA"/>
<circle cx="88.3945" cy="37.5754" r="3.24384" fill="#D7DDDA"/>
<circle cx="88.3945" cy="54.6055" r="3.24384" fill="#D7DDDA"/>
<circle cx="88.3945" cy="71.6356" r="3.24384" fill="#D7DDDA"/>
<circle cx="88.3945" cy="88.6657" r="3.24384" fill="#D7DDDA"/>
<circle cx="88.3945" cy="105.696" r="3.24384" fill="#D7DDDA"/>
<circle cx="88.3945" cy="122.726" r="3.24384" fill="#D7DDDA"/>
<circle cx="88.3945" cy="139.756" r="3.24384" fill="#D7DDDA"/>
<circle cx="71.3644" cy="3.51508" r="3.24384" fill="#D7DDDA"/>
<circle cx="71.3644" cy="20.5452" r="3.24384" fill="#D7DDDA"/>
<circle cx="71.3644" cy="37.5754" r="3.24384" fill="#D7DDDA"/>
<circle cx="71.3644" cy="54.6055" r="3.24384" fill="#D7DDDA"/>
<circle cx="71.3644" cy="71.6356" r="3.24384" fill="#D7DDDA"/>
<circle cx="71.3644" cy="88.6657" r="3.24384" fill="#D7DDDA"/>
<circle cx="71.3644" cy="105.696" r="3.24384" fill="#D7DDDA"/>
<circle cx="71.3644" cy="122.726" r="3.24384" fill="#D7DDDA"/>
<circle cx="71.3644" cy="139.756" r="3.24384" fill="#D7DDDA"/>
<circle cx="122.455" cy="3.51508" r="3.24384" fill="#D7DDDA"/>
<circle cx="122.455" cy="20.5452" r="3.24384" fill="#D7DDDA"/>
<circle cx="122.455" cy="37.5754" r="3.24384" fill="#D7DDDA"/>
<circle cx="122.455" cy="54.6055" r="3.24384" fill="#D7DDDA"/>
<circle cx="122.455" cy="71.6356" r="3.24384" fill="#D7DDDA"/>
<circle cx="122.455" cy="88.6657" r="3.24384" fill="#D7DDDA"/>
<circle cx="122.455" cy="105.696" r="3.24384" fill="#D7DDDA"/>
<circle cx="122.455" cy="122.726" r="3.24384" fill="#D7DDDA"/>
<circle cx="122.455" cy="139.756" r="3.24384" fill="#D7DDDA"/>
<circle cx="54.3342" cy="3.51508" r="3.24384" fill="#D7DDDA"/>
<circle cx="54.3342" cy="20.5452" r="3.24384" fill="#D7DDDA"/>
<circle cx="54.3342" cy="37.5754" r="3.24384" fill="#D7DDDA"/>
<circle cx="54.3342" cy="54.6055" r="3.24384" fill="#D7DDDA"/>
<circle cx="54.3342" cy="71.6356" r="3.24384" fill="#D7DDDA"/>
<circle cx="54.3342" cy="88.6657" r="3.24384" fill="#D7DDDA"/>
<circle cx="54.3342" cy="105.696" r="3.24384" fill="#D7DDDA"/>
<circle cx="54.3342" cy="122.726" r="3.24384" fill="#D7DDDA"/>
<circle cx="54.3342" cy="139.756" r="3.24384" fill="#D7DDDA"/>
<circle cx="105.425" cy="3.51508" r="3.24384" fill="#D7DDDA"/>
<circle cx="105.425" cy="20.5452" r="3.24384" fill="#D7DDDA"/>
<circle cx="105.425" cy="37.5754" r="3.24384" fill="#D7DDDA"/>
<circle cx="105.425" cy="54.6055" r="3.24384" fill="#D7DDDA"/>
<circle cx="105.425" cy="71.6356" r="3.24384" fill="#D7DDDA"/>
<circle cx="105.425" cy="88.6657" r="3.24384" fill="#D7DDDA"/>
<circle cx="105.425" cy="105.696" r="3.24384" fill="#D7DDDA"/>
<circle cx="105.425" cy="122.726" r="3.24384" fill="#D7DDDA"/>
<circle cx="105.425" cy="139.756" r="3.24384" fill="#D7DDDA"/>
</svg>
